<?xml version="1.0" encoding="utf-8"?>
<!-- Generator: Adobe Illustrator 24.3.0, SVG Export Plug-In . SVG Version: 6.00 Build 0)  -->
<svg version="1.1" id="Layer_1" xmlns="http://www.w3.org/2000/svg" xmlns:xlink="http://www.w3.org/1999/xlink" x="0px" y="0px"
	 viewBox="0 0 160.04 148.04" style="enable-background:new 0 0 160.04 148.04;" xml:space="preserve">
<style type="text/css">
	.st0{fill:#C14000;}
</style>
<g>
	<g>
		<path class="st0" d="M115.95,132.21H44.4c-14.53,0-26.35-11.82-26.35-26.35V42.77c0-14.53,11.82-26.35,26.35-26.35h71.55
			c14.53,0,26.35,11.82,26.35,26.35v63.09C142.3,120.39,130.48,132.21,115.95,132.21z M44.4,20.48c-12.29,0-22.3,10-22.3,22.3v63.09
			c0,12.29,10,22.3,22.3,22.3h71.55c12.29,0,22.3-10,22.3-22.3V42.77c0-12.29-10-22.3-22.3-22.3H44.4z"/>
	</g>
	<g>
		<path class="st0" d="M69.9,119.99c-1.51,0-5.44-0.2-9.4-2.07c-5.15-2.43-21.22-12.18-11.84-35.34c9.6-23.74,5.46-35.36,5.42-35.47
			l-1.58-4.2l3.84,2.31c0.56,0.34,12.33,7.54,16.98,19.39c2.46-7.38,6.61-22.53,3.76-33.95l-1.16-4.63l3.67,3.05
			c0.73,0.6,17.84,15.05,21.91,38.19c2.5,14.22-2.46,31.87-12.06,42.94c-5.72,6.6-12.36,9.99-18.97,9.78
			C70.36,119.98,70.17,119.99,69.9,119.99z"/>
		<path class="st0" d="M89.56,118.48c-0.73,0-1.44-0.38-1.84-1.04c-0.55-0.9-0.36-2.05,0.43-2.73c3.49-3.02,20.67-19.58,15.76-49.55
			l-0.79-4.82l3.74,4.05c0.23,0.23,4.48,5,6.57,12.14c2.55-3.33,2.6-8.43,2.6-8.43s7.78,12.31,1.56,26.94
			c-4.22,9.95-13.36,17.79-27.23,23.29l0,0C90.1,118.43,89.83,118.48,89.56,118.48z"/>
	</g>
</g>
</svg>
