<?xml version="1.0" encoding="utf-8"?>
<!-- Generator: Adobe Illustrator 24.3.0, SVG Export Plug-In . SVG Version: 6.00 Build 0)  -->
<svg version="1.1" id="Layer_1" xmlns="http://www.w3.org/2000/svg" xmlns:xlink="http://www.w3.org/1999/xlink" x="0px" y="0px"
	 viewBox="0 0 160 148" style="enable-background:new 0 0 160 148;" xml:space="preserve">
<style type="text/css">
	.st0{fill:#C14000;}
</style>
<g>
	<g>
		<path class="st0" d="M111.9,133.2H40.4c-14.5,0-26.4-11.8-26.4-26.3V43.8c0-14.5,11.8-26.4,26.4-26.4H112
			c14.5,0,26.3,11.8,26.3,26.4v63.1C138.3,121.4,126.5,133.2,111.9,133.2z M40.4,21.5c-12.3,0-22.3,10-22.3,22.3v63.1
			c0,12.3,10,22.3,22.3,22.3H112c12.3,0,22.3-10,22.3-22.3V43.8c0-12.3-10-22.3-22.3-22.3L40.4,21.5L40.4,21.5z"/>
	</g>
	<g>
		<path class="st0" d="M65.9,121c-1.5,0-5.4-0.2-9.4-2.1c-5.2-2.4-21.2-12.2-11.8-35.3c9.6-23.7,5.5-35.4,5.4-35.5l-1.6-4.2l3.8,2.3
			c0.6,0.3,12.3,7.5,17,19.4c2.5-7.4,6.6-22.5,3.8-34L71.9,27l3.7,3c0.7,0.6,17.8,15,21.9,38.2c2.5,14.2-2.5,31.9-12.1,42.9
			c-5.7,6.6-12.4,10-19,9.8C66.4,121,66.2,121,65.9,121z"/>
		<path class="st0" d="M85.6,119.5c-0.7,0-1.4-0.4-1.8-1c-0.6-0.9-0.4-2.1,0.4-2.7c3.5-3,20.7-19.6,15.8-49.5l-0.8-4.8l3.7,4.1
			c0.2,0.2,4.5,5,6.6,12.1c2.6-3.3,2.6-8.4,2.6-8.4s7.8,12.3,1.6,26.9c-4.2,9.9-13.4,17.8-27.2,23.3l0,0
			C86.1,119.4,85.8,119.5,85.6,119.5z"/>
	</g>
</g>
</svg>
