<?xml version="1.0" encoding="utf-8"?>
<!-- Generator: Adobe Illustrator 24.3.0, SVG Export Plug-In . SVG Version: 6.00 Build 0)  -->
<svg version="1.1" id="Layer_1" xmlns="http://www.w3.org/2000/svg" xmlns:xlink="http://www.w3.org/1999/xlink" x="0px" y="0px"
	 viewBox="0 0 228 61.6" style="enable-background:new 0 0 228 61.6;" xml:space="preserve">
<style type="text/css">
	.st0{fill:#C14000;}
</style>
<g>
	<path class="st0" d="M11.74,51.09V17.11H30.4v3.42H16.15v11.53h12.9v3.4h-12.9v15.63H11.74z"/>
	<polygon class="st0" points="43.92,51.09 43.92,30.04 37.13,30.04 37.13,26.64 48,26.64 48,47.7 54.81,47.7 54.81,51.09 	"/>
	<path class="st0" d="M66.04,51.09V26.64h4.08v5.34c1.27-2.02,2.72-3.53,4.37-4.53c1.64-1,3.47-1.49,5.48-1.49
		c1.48,0,2.96,0.23,4.44,0.68v8.82h-3.93v-5.6c-0.68-0.11-1.22-0.17-1.62-0.17c-1.51,0-3,0.6-4.47,1.79c-1.47,1.2-2.89,3-4.27,5.4
		v14.2H66.04z"/>
	<path class="st0" d="M111.24,49.47c-3.26,1.55-6.34,2.33-9.25,2.33c-2.21,0-4.18-0.55-5.91-1.64c-1.74-1.1-3.13-2.66-4.18-4.7
		c-1.05-2.04-1.57-4.21-1.57-6.54c0-2.24,0.5-4.38,1.49-6.44c0.99-2.06,2.38-3.66,4.16-4.8c1.78-1.15,3.76-1.72,5.96-1.72
		c2.91,0,5.24,1.04,7,3.11c1.76,2.07,2.64,5.27,2.64,9.6v0.88H94.71c0,1.69,0.36,3.24,1.07,4.64c0.71,1.4,1.64,2.45,2.8,3.15
		c1.16,0.7,2.46,1.06,3.93,1.06c2.64,0,5.55-0.88,8.74-2.63V49.47z M94.96,36.49h12.2v-0.6c0-1.99-0.49-3.58-1.47-4.76
		c-0.98-1.18-2.29-1.77-3.91-1.77c-1.65,0-3.08,0.6-4.29,1.8C96.27,32.36,95.43,34.14,94.96,36.49z"/>
	<path class="st0" d="M118.95,51.09l-3.93-33.98h4.02l2.33,20.7l0.3,3.44h0.13l0.43-3.44l3.57-20.7h4.04l4.08,21.53l0.4,3.27h0.11
		l0.28-3.29l2.54-21.51h3.46l-4.1,33.98h-4.19l-4.38-23.04l-0.47-3.46h-0.11l-0.41,3.46l-3.95,23.04H118.95z"/>
	<path class="st0" d="M160.78,45.6c-1.25,2.04-2.75,3.57-4.5,4.61c-1.74,1.04-3.34,1.56-4.8,1.56c-2.05,0-3.89-0.88-5.51-2.65
		c-1.62-1.77-2.43-4.45-2.43-8.05c0-2.83,0.54-5.36,1.61-7.58c1.07-2.22,2.52-3.98,4.33-5.27c1.82-1.3,4.06-1.94,6.72-1.94
		c0.78,0,1.95,0.08,3.5,0.26c0.24,0.03,0.6,0.06,1.07,0.11h4.08v17.28c0,2.95,0.31,5.34,0.92,7.18h-4.25
		C161.22,49.76,160.97,47.93,160.78,45.6z M160.78,40.76V30.27c-1.45-0.39-2.8-0.58-4.04-0.58c-2.51,0-4.59,0.97-6.27,2.92
		c-1.67,1.94-2.51,4.59-2.51,7.93c0,2.42,0.45,4.25,1.37,5.48c0.91,1.23,1.95,1.85,3.12,1.85c1.27,0,2.67-0.64,4.2-1.92
		S159.56,42.94,160.78,40.76z"/>
	<path class="st0" d="M178.19,51.09V19.17h-7.33v-3.42h11.38V47.7h7.64v3.4H178.19z"/>
	<path class="st0" d="M205.1,51.09V19.17h-7.33v-3.42h11.38V47.7h7.64v3.4H205.1z"/>
	<g>
		<path class="st0" d="M42.31,23.74c-0.34,0-1.21-0.04-2.09-0.46c-1.15-0.54-4.72-2.71-2.64-7.87c2.14-5.28,1.21-7.87,1.21-7.9
			l-0.35-0.93l0.85,0.51c0.12,0.07,2.74,1.68,3.78,4.32c0.55-1.64,1.47-5.02,0.84-7.56l-0.26-1.03l0.82,0.68
			c0.16,0.13,3.97,3.35,4.88,8.5c0.56,3.16-0.55,7.09-2.68,9.56c-1.27,1.47-2.75,2.22-4.22,2.18
			C42.42,23.74,42.37,23.74,42.31,23.74z"/>
		<path class="st0" d="M46.69,23.41c-0.16,0-0.32-0.08-0.41-0.23c-0.12-0.2-0.08-0.46,0.1-0.61c0.78-0.67,4.6-4.36,3.51-11.03
			l-0.18-1.07l0.83,0.9c0.05,0.05,1,1.11,1.46,2.7c0.57-0.74,0.58-1.88,0.58-1.88s1.73,2.74,0.35,6c-0.94,2.21-2.97,3.96-6.06,5.18
			l0,0C46.81,23.39,46.75,23.41,46.69,23.41z"/>
	</g>
</g>
</svg>
