<?xml version="1.0" encoding="utf-8"?>
<!-- Generator: Adobe Illustrator 24.3.0, SVG Export Plug-In . SVG Version: 6.00 Build 0)  -->
<svg version="1.1" id="a51bdc40-e545-4be9-b931-e3a37b4efbd3"
	 xmlns="http://www.w3.org/2000/svg" xmlns:xlink="http://www.w3.org/1999/xlink" x="0px" y="0px" viewBox="0 0 906 510.5"
	 style="enable-background:new 0 0 906 510.5;" xml:space="preserve">
<style type="text/css">
	.st0{fill:#F2F2F2;}
	.st1{fill:#FFFFFF;}
	.st2{fill:#CCCCCC;}
	.st3{fill:#E6E6E6;}
	.st4{fill:#FFB8B8;}
	.st5{fill:#C14000;}
	.st6{fill:#3F3D56;}
	.st7{fill:#2F2E41;}
</style>
<ellipse class="st0" cx="834.8" cy="505.5" rx="24" ry="4"/>
<rect x="860.8" y="123.5" class="st0" width="2" height="42"/>
<rect x="828.8" y="96.5" class="st0" width="12" height="414"/>
<path class="st0" d="M889.7,129H779.8c-4.7,0-8.5-3.8-8.5-8.5c0-0.4,0-0.7,0.1-1.1l14-112c0.5-4.3,4.1-7.4,8.4-7.4h81.9
	c4.3,0,7.9,3.2,8.4,7.4l14,112c0.6,4.7-2.7,8.9-7.4,9.5C890.4,129,890.1,129,889.7,129z"/>
<circle class="st0" cx="861.8" cy="165.5" r="7"/>
<path class="st0" d="M125.6,399.4c-5.1,17.5-19.8,29.8-35.2,40.2c-2.1,1.5-4.3,2.9-6.4,4.3c0,0,0,0,0,0c-0.1,0.1-0.2,0.1-0.3,0.2
	c-0.4,0.3-0.9,0.6-1.3,0.9l0.2,0.1c0,0,0.2,0.1,0,0c-0.1,0-0.2-0.1-0.2-0.1c-8.9-3.6-18-7.5-24.9-14.2c-7.1-7-11.3-18-7.4-27.2
	c0.5-1.2,1.1-2.4,1.9-3.4c0.3-0.4,0.6-0.9,1-1.3c6.6-8.1,18.5-9.2,26.5-2.6c2.7,2.2,4.7,5.1,5.8,8.4c1.1-10.5-7.5-19.3-15.9-25.8
	c-8.4-6.5-17.9-13.6-19.5-24.1c-0.9-5.8,1.1-11.5,4.8-16c0.1-0.1,0.2-0.3,0.3-0.4c4.5-5.3,10.8-8.7,17.7-9.5
	c12.8-1.3,25.3,5.5,34.6,14.4C122.2,357.4,131.3,379.4,125.6,399.4z"/>
<path class="st1" d="M101.5,376.4c2.5,3.8,4.3,8,5.6,12.4c1.1,3.9,1.5,8,1.4,12c-0.3,8.3-2.7,16.4-6.8,23.7
	c-3.1,5.5-6.9,10.6-11.3,15.1c-2.1,1.5-4.3,2.9-6.4,4.3c0,0,0,0,0,0c-0.1,0.1-0.2,0.1-0.3,0.2c-0.4,0.3-0.9,0.6-1.3,0.9
	c0,0,0.5,0.2,0.2,0.1c-0.1,0-0.2-0.1-0.2-0.1c1.6-13.3-3.3-26.6-13.2-35.7c-4.9-4.4-10.8-7.5-17.1-9.2c0.3-0.4,0.6-0.9,1-1.3
	c2.5,0.7,4.8,1.6,7.1,2.7c8.2,3.9,14.9,10.4,19.2,18.5c3.8,7.3,5.4,15.6,4.7,23.8c0.4-0.3,0.7-0.7,1.1-1c6.8-6.3,12.8-13.6,16.9-22
	c3.5-7.1,5.3-15,5.1-22.9c-0.3-8.7-3.8-16.7-8.8-23.6c-5.5-7.4-11.9-14.1-19.2-19.8c-7.3-5.9-15.4-10.8-23.9-14.8
	c-0.4-0.2-0.6-0.7-0.4-1.1c0.1-0.2,0.2-0.3,0.3-0.4c0.2-0.1,0.4-0.1,0.5,0c1.1,0.5,2.1,1,3.1,1.5c8.6,4.3,16.7,9.6,24.1,15.9
	C89.8,361.6,96.5,368.5,101.5,376.4z"/>
<path class="st0" d="M52.6,443.5H108c2.4,0,4.3,1.9,4.3,4.3c0,0.2,0,0.4,0,0.5l-7.1,56.4c-0.3,2.1-2.1,3.7-4.2,3.8H59.7
	c-2.2,0-4-1.6-4.2-3.8l-7.1-56.4c-0.3-2.3,1.4-4.5,3.7-4.8C52.3,443.5,52.4,443.5,52.6,443.5z"/>
<circle class="st2" cx="233.1" cy="502" r="6.9"/>
<circle class="st2" cx="670.8" cy="502" r="6.9"/>
<path class="st3" d="M360.2,405.6H251.6c-10.5,0-19-8.5-19.1-19.1v-73.9c0-10.5,8.5-19,19.1-19.1h108.5c10.5,0,19,8.5,19.1,19.1
	v73.9C379.2,397,370.7,405.6,360.2,405.6z"/>
<path class="st3" d="M506.2,406.2H397.7c-10.5,0-19-8.5-19.1-19.1v-73.9c0-10.5,8.5-19,19.1-19.1h108.5c10.5,0,19,8.5,19.1,19.1
	v73.9C525.3,397.6,516.8,406.1,506.2,406.2z"/>
<path class="st3" d="M652.3,406.7H543.8c-10.5,0-19-8.5-19.1-19.1v-73.9c0-10.5,8.5-19,19.1-19.1h108.5c10.5,0,19,8.5,19.1,19.1
	v73.9C671.4,398.2,662.8,406.7,652.3,406.7z"/>
<rect x="215.8" y="401.5" class="st3" width="478.1" height="99.9"/>
<path class="st3" d="M233.1,502h-20.8c-10.5,0-19.1-9.7-19.1-21.6V376.1h39.8V502z"/>
<path class="st3" d="M691.6,502h-20.8V360h39.8v117.6C710.6,491.1,702.1,502,691.6,502z"/>
<path class="st2" d="M379.8,422.3H233.1v-31.2c48.9-28,97.8-28,146.7,0V422.3z"/>
<path class="st2" d="M525.9,422.9H379.2v-31.2c48.9-28,97.8-28,146.7,0V422.9z"/>
<path class="st2" d="M672,423.5H525.3v-31.2c48.9-28,97.8-28,146.7,0V423.5z"/>
<circle class="st2" cx="204.8" cy="368.6" r="34.1"/>
<circle class="st2" cx="703.7" cy="367.5" r="34.1"/>
<path class="st4" d="M603.4,300.7c0.1,0.5,0.1,1.1,0.1,1.7l40.8,28.1l10.9-5.2l9.9,15.4l-18.4,11c-3.1,1.8-6.9,1.4-9.5-1l-41.4-38.4
	c-5.6,1.6-11.4-1.7-12.9-7.3c-1.6-5.6,1.7-11.4,7.3-12.9c5.6-1.6,11.4,1.7,12.9,7.3C603.2,299.9,603.3,300.3,603.4,300.7
	L603.4,300.7z"/>
<path class="st5" d="M645.1,328.1c0.4-1.3,1.3-2.3,2.4-2.8l20.5-9.4c5.8-3.8,13.5-2.1,17.3,3.7c3.8,5.8,2.1,13.5-3.6,17.3l-17,15
	c-1.9,1.6-4.7,1.5-6.4-0.4c-0.1-0.2-0.3-0.3-0.4-0.5l-12.4-19C644.9,330.7,644.7,329.4,645.1,328.1z"/>
<path class="st6" d="M602.8,302.6l-0.2,0l-0.6-7.7c-0.2-2.5-1.8-4.4-3.6-4.2l0,0l-11.9,0.9c-1.8,0.1-5.1,2.4-4.9,4.9l0.1,2l2.9,40.5
	c0.2,2.5,3.8,4.2,5.6,4.1l0,0l11.9-0.9c1.8-0.1,3.1-2.2,2.9-4.7l0,0l-2.1-29.2l0.2,0L602.8,302.6z"/>
<path class="st1" d="M601.4,294.9l3.1,42.4c0.1,1.8-0.8,3.4-2.2,3.5l-12,0.9c-1.3,0.1-2.5-1.3-2.7-3.2l-3.1-42.4
	c-0.1-1.8,0.8-3.4,2.2-3.5l1.5-0.1c-0.2,0.8,0.1,1.6,0.8,2c0.1,0.1,0.3,0.1,0.4,0.1l6.8-0.5c0.6,0,1.1-0.8,1-1.7
	c0-0.2-0.1-0.4-0.1-0.6l1.6-0.1C600.1,291.7,601.3,293.1,601.4,294.9z"/>
<polygon class="st4" points="433.6,392.9 429.6,381.3 472.5,360.5 478.3,377.7 "/>
<path class="st7" d="M423.3,399.7l-12.7-37.4l0.5-0.2c8-2.7,16.8,1.6,19.5,9.6c0,0,0,0,0,0l0,0l7.8,22.9L423.3,399.7z"/>
<path class="st7" d="M603.8,401.2c-9.2,0.5-18.4-1.4-26.6-5.6l-50.4-34.3l-58.9,21.8c-3.2,1.1-6.8-0.5-8.1-3.7l-2.9-6.9
	c-1.4-3.2,0.1-7,3.3-8.4l56.3-25.3c6.8-3,14.3-3.7,21.5-1.9l78.1,19.9l20.6,24.5l-0.2,0.3C626.4,395.7,614.4,400.4,603.8,401.2z"/>
<circle class="st4" cx="667.6" cy="274.2" r="24.6"/>
<path class="st5" d="M642.4,392.3l-39.5-29.4l27-19.2c-0.8-2.5-4.2-16.7,14.5-26.3c5.9-3.1,10.2-5.7,12.7-7.8
	c3.5-3.1,8.1-4.7,12.7-4.6c10.5,0.2,18.8,8.8,18.7,19.3c0,1.8-0.3,3.6-0.8,5.3c-3.9,12.7-10.1,29.5-17.6,37.5
	c-8.4,9.1-17.6,17.5-27.3,25.1L642.4,392.3z"/>
<polygon class="st4" points="439.8,403.2 435.9,391.6 478.8,370.8 484.6,388 "/>
<path class="st7" d="M429.6,410l-12.7-37.4l0.5-0.2c8-2.7,16.8,1.6,19.5,9.6c0,0,0,0,0,0l0,0l7.8,22.9L429.6,410z"/>
<path class="st7" d="M610.1,411.5c-9.2,0.5-18.4-1.4-26.6-5.6L533,371.6l-58.9,21.8c-3.2,1.1-6.8-0.5-8.1-3.7l-2.9-6.9
	c-1.4-3.2,0.1-7,3.3-8.4l56.3-25.3c6.8-3,14.3-3.7,21.5-1.9l78.1,19.9l20.6,24.5l-0.2,0.3C632.7,406,620.6,410.7,610.1,411.5z"/>
<path class="st4" d="M598.7,330.2c0.3,0.5,0.6,0.9,0.8,1.4l49,8l7.6-9.3l15.6,9.7l-11.9,17.8c-2,3-5.7,4.3-9.1,3.2l-53.8-17
	c-4.4,3.8-11,3.4-14.8-1c-3.8-4.4-3.4-11,1-14.8c4.4-3.8,11-3.4,14.8,1C598.2,329.5,598.5,329.8,598.7,330.2L598.7,330.2z"/>
<path class="st5" d="M648.2,337.1c-0.2-1.3,0.2-2.6,1-3.6l14.5-17.3c3.6-5.9,11.3-7.7,17.2-4.1c5.9,3.6,7.7,11.3,4.1,17.1l-8.9,20.8
	c-1,2.3-3.6,3.3-5.9,2.4c-0.2-0.1-0.4-0.2-0.6-0.3l-19.4-11.9C649.1,339.5,648.4,338.4,648.2,337.1z"/>
<path class="st7" d="M661,301.2c7.1-9.2,11.1-20.4,11.3-32.1c-3.4,2.5-7.2,4.3-11.2,5.4c-4.3,1.1-9,1.4-13.1-0.5
	c-5.7-2.6-9.1-9.2-8.4-15.4s4.9-11.8,10.5-14.6c5.7-2.7,12.3-3.1,18.3-1.1c6.5-5.5,15.6-6.7,23.3-3.1c8.7,4.3,13.5,14.1,14.3,23.8
	s-1.6,19.2-4.1,28.6l-0.3,1.1c-0.8,2.9-3,8.5-3,8.5s-12.9-2.5-18-4.2C673.3,300.4,661,301.2,661,301.2z"/>
<path class="st6" d="M599.5,303.6l-10.5,0.8c-0.6,0-1-0.4-1.1-0.9c0-0.5,0.4-1,0.9-1.1l10.5-0.8c0.6,0,1,0.4,1.1,0.9
	C600.4,303,600,303.5,599.5,303.6C599.5,303.6,599.5,303.6,599.5,303.6z"/>
<path class="st6" d="M599.8,308.5l-10.5,0.8c-0.6,0-1-0.4-1.1-0.9c0-0.6,0.4-1,0.9-1.1c0,0,0,0,0,0l10.5-0.8c0.6,0,1,0.4,1.1,0.9
	C600.8,308,600.4,308.5,599.8,308.5z"/>
<path class="st6" d="M600.2,313.5l-10.5,0.8c-0.6,0-1-0.4-1.1-0.9c0-0.5,0.4-1,0.9-1.1l10.5-0.8c0.6,0,1,0.4,1.1,0.9
	C601.1,313,600.7,313.5,600.2,313.5z"/>
<path class="st6" d="M905,510.5H1c-0.6,0-1-0.4-1-1s0.4-1,1-1h904c0.6,0,1,0.4,1,1S905.6,510.5,905,510.5z"/>
<path class="st0" d="M480.8,177.5h-101c-5,0-9-4-9-9v-87c0-5,4-9,9-9h101c5,0,9,4,9,9v87C489.8,173.5,485.7,177.5,480.8,177.5z
	 M379.8,74.5c-3.9,0-7,3.1-7,7v87c0,3.9,3.1,7,7,7h101c3.9,0,7-3.1,7-7v-87c0-3.9-3.1-7-7-7H379.8z"/>
<path class="st3" d="M466,164h-71.5c-4.7,0-8.5-3.8-8.5-8.5v-61c0-4.7,3.8-8.5,8.5-8.5H466c4.7,0,8.5,3.8,8.5,8.5v61
	C474.5,160.2,470.7,164,466,164z"/>
<circle class="st0" cx="430.8" cy="54.5" r="5"/>
<polygon class="st0" points="441.3,74 430.8,56.5 420.3,74 418.6,73 430.8,52.5 443,73 "/>
<path class="st5" d="M442.3,118c0-1.5-0.2-3-0.5-4.5h-15c-2.2,0-4,1.8-4,4v21.4C433.8,138.1,442.3,129,442.3,118z"/>
<path class="st1" d="M421.3,140c-12.2,0-22-9.8-22-22s9.8-22,22-22c10.3,0,19.3,7.2,21.5,17.3l0.3,1.2h-16.2c-1.7,0-3,1.3-3,3v22.4
	l-1.1,0.1C422.2,140,421.8,140,421.3,140z M421.3,98c-11,0-20,9-20,20s9,20,20,20c0.2,0,0.3,0,0.5,0v-20.5c0-2.8,2.2-5,5-5h13.7
	C438,103.9,430.2,98,421.3,98z"/>
<path class="st1" d="M450.8,146.5h-24c-2.8,0-5-2.2-5-5V138l0.9-0.1c11-0.8,19.3-10.3,18.5-21.3c-0.1-1-0.2-2-0.4-2.9l-0.3-1.2h10.2
	c2.8,0,5,2.2,5,5v24C455.8,144.3,453.5,146.5,450.8,146.5z M423.8,139.8v1.7c0,1.7,1.3,3,3,3h24c1.7,0,3-1.3,3-3v-24
	c0-1.7-1.3-3-3-3H443c0.2,1.2,0.3,2.3,0.3,3.5C443.2,129.2,434.9,138.5,423.8,139.8z"/>
</svg>
